<svg width="96" height="27" fill="none" xmlns="http://www.w3.org/2000/svg"><path d="M19.697 25.73V10.724L14.316 21.65H11.15L5.768 10.724V25.73H0V.543h6.26l6.473 13.16L19.24.544h6.226V25.73h-5.769ZM38.288 26.084c-2.11 0-3.904-.449-5.381-1.348-1.454-.898-2.568-2.08-3.342-3.547a10.031 10.031 0 0 1-1.16-4.754c0-1.726.387-3.322 1.16-4.789.774-1.466 1.9-2.649 3.377-3.547 1.477-.899 3.26-1.348 5.346-1.348 2.087 0 3.87.449 5.347 1.348 1.477.898 2.603 2.08 3.376 3.547.774 1.466 1.161 3.063 1.161 4.79 0 1.702-.387 3.287-1.16 4.753-.774 1.466-1.9 2.649-3.377 3.547-1.477.9-3.26 1.348-5.347 1.348Zm-4.115-9.649c0 1.443.387 2.614 1.16 3.512.798.899 1.783 1.348 2.955 1.348 1.15 0 2.11-.449 2.885-1.348.797-.898 1.195-2.07 1.195-3.512 0-1.442-.398-2.613-1.195-3.512-.774-.898-1.736-1.348-2.885-1.348-1.172 0-2.157.45-2.954 1.348-.774.899-1.16 2.07-1.16 3.512ZM62.008 25.907c-1.642 0-3.19-.307-4.643-.922a12.585 12.585 0 0 1-3.834-2.66c-1.102-1.16-1.97-2.52-2.603-4.08-.61-1.585-.914-3.347-.914-5.286 0-1.75.304-3.382.914-4.896a12.772 12.772 0 0 1 2.638-4.008 12.36 12.36 0 0 1 3.975-2.696c1.524-.663 3.165-.994 4.924-.994 2.298 0 4.314.497 6.05 1.49 1.758.993 3.072 2.33 3.94 4.009l-4.292 3.263A6.3 6.3 0 0 0 65.7 6.502a6.657 6.657 0 0 0-3.447-.957c-1.266 0-2.38.342-3.342 1.028-.961.663-1.711 1.573-2.25 2.732-.54 1.159-.81 2.448-.81 3.867 0 1.442.282 2.743.844 3.902.563 1.135 1.337 2.034 2.322 2.696 1.008.639 2.169.958 3.482.958 2.251 0 4.28-1.04 6.085-3.122v-.816h-4.854V12.57h9.638v13.16h-4.784v-2.482c-1.9 1.773-4.092 2.66-6.577 2.66ZM85.518 26.084c-2.11 0-3.904-.449-5.381-1.348-1.454-.898-2.568-2.08-3.342-3.547a10.031 10.031 0 0 1-1.16-4.754c0-1.726.386-3.322 1.16-4.789.774-1.466 1.9-2.649 3.377-3.547 1.477-.899 3.26-1.348 5.346-1.348 2.087 0 3.87.449 5.347 1.348 1.477.898 2.602 2.08 3.376 3.547.774 1.466 1.16 3.063 1.16 4.79 0 1.702-.386 3.287-1.16 4.753-.774 1.466-1.9 2.649-3.376 3.547-1.478.9-3.26 1.348-5.347 1.348Zm-4.115-9.649c0 1.443.387 2.614 1.16 3.512.798.899 1.783 1.348 2.955 1.348 1.15 0 2.11-.449 2.884-1.348.798-.898 1.196-2.07 1.196-3.512 0-1.442-.398-2.613-1.196-3.512-.773-.898-1.735-1.348-2.884-1.348-1.172 0-2.157.45-2.954 1.348-.774.899-1.161 2.07-1.161 3.512Z" fill="#C6CBCD"/></svg>